<svg width="170" height="170" viewBox="0 0 170 170" fill="none" xmlns="http://www.w3.org/2000/svg">
<g filter="url(#filter0_d_1014_1822)">
<rect x="7.46924" y="0.358398" width="154.357" height="154.357" rx="15.3779" fill="#D4E5ED"/>
<rect x="16.7681" y="9.65723" width="137.619" height="137.619" rx="15.3779" fill="#FF730E"/>
<path d="M48.1276 117.745V72.5164C48.1276 70.4534 48.1276 68.3507 48.1276 66.2083C48.2069 63.9865 48.2466 61.7251 48.2466 59.424C45.6281 61.8044 42.7319 63.9072 39.558 65.7322C36.3841 67.4778 33.0514 68.6681 29.5601 69.3028L27.6558 52.4017C29.7188 52.243 31.9009 51.7272 34.202 50.8544C36.5824 49.9816 38.9232 48.9104 41.2243 47.6408C43.5254 46.3712 45.5884 45.0223 47.4135 43.594C49.2385 42.0864 50.6271 40.6185 51.5792 39.1902H67.8853V117.745H48.1276Z" fill="white"/>
<path d="M109.027 118.935C98.315 118.935 90.1818 115.523 84.6274 108.699C79.1524 101.875 76.4149 91.798 76.4149 78.4676C76.4149 65.1371 79.1524 55.0599 84.6274 48.2359C90.1818 41.412 98.315 38 109.027 38C119.739 38 127.832 41.412 133.308 48.2359C138.862 55.0599 141.639 65.1371 141.639 78.4676C141.639 91.798 138.862 101.875 133.308 108.699C127.832 115.523 119.739 118.935 109.027 118.935ZM109.027 102.986C111.963 102.986 114.343 102.193 116.168 100.606C117.993 98.9394 119.303 96.3209 120.096 92.7502C120.969 89.1002 121.405 84.3393 121.405 78.4676C121.405 72.5958 120.969 67.8746 120.096 64.3039C119.303 60.6539 117.993 58.0354 116.168 56.4484C114.343 54.7821 111.963 53.949 109.027 53.949C106.17 53.949 103.79 54.7821 101.886 56.4484C100.061 58.0354 98.7117 60.6539 97.8389 64.3039C97.0454 67.8746 96.6487 72.5958 96.6487 78.4676C96.6487 84.3393 97.0454 89.1002 97.8389 92.7502C98.7117 96.3209 100.061 98.9394 101.886 100.606C103.79 102.193 106.17 102.986 109.027 102.986Z" fill="white"/>
</g>
<defs>
<filter id="filter0_d_1014_1822" x="0.0303493" y="0.358398" width="169.235" height="169.235" filterUnits="userSpaceOnUse" color-interpolation-filters="sRGB">
<feFlood flood-opacity="0" result="BackgroundImageFix"/>
<feColorMatrix in="SourceAlpha" type="matrix" values="0 0 0 0 0 0 0 0 0 0 0 0 0 0 0 0 0 0 127 0" result="hardAlpha"/>
<feOffset dy="7.43889"/>
<feGaussianBlur stdDeviation="3.71944"/>
<feComposite in2="hardAlpha" operator="out"/>
<feColorMatrix type="matrix" values="0 0 0 0 0 0 0 0 0 0 0 0 0 0 0 0 0 0 0.25 0"/>
<feBlend mode="normal" in2="BackgroundImageFix" result="effect1_dropShadow_1014_1822"/>
<feBlend mode="normal" in="SourceGraphic" in2="effect1_dropShadow_1014_1822" result="shape"/>
</filter>
</defs>
</svg>
