<svg width="171" height="170" viewBox="0 0 171 170" fill="none" xmlns="http://www.w3.org/2000/svg">
<g filter="url(#filter0_d_1014_1810)">
<rect x="8.23486" y="0.750977" width="154.357" height="154.357" rx="15.3779" fill="#D4E5ED"/>
<rect x="17.5332" y="10.0498" width="137.619" height="137.619" rx="15.3779" fill="#FF730E"/>
<path d="M54.7326 119.066V73.8379C54.7326 71.7749 54.7326 69.6722 54.7326 67.5298C54.8119 65.308 54.8516 63.0466 54.8516 60.7455C52.2331 63.1259 49.3369 65.2287 46.163 67.0537C42.989 68.7993 39.6564 69.9896 36.1651 70.6243L34.2607 53.7232C36.3238 53.5645 38.5059 53.0487 40.807 52.1759C43.1874 51.3031 45.5282 50.2319 47.8293 48.9623C50.1304 47.6927 52.1934 46.3438 54.0184 44.9155C55.8434 43.4079 57.232 41.94 58.1842 40.5117H74.4903V119.066H54.7326Z" fill="white"/>
<path d="M81.2345 40.5117H145.864V55.0324C139.357 61.4596 134.199 68.0852 130.391 74.9091C126.661 81.6537 124.003 88.676 122.416 95.9761C120.909 103.276 120.155 110.973 120.155 119.066H99.921C99.921 110.417 100.992 102.205 103.135 94.4288C105.356 86.5733 108.768 79.0749 113.371 71.9336C118.052 64.7923 124.083 57.889 131.462 51.2237L135.747 56.5797H81.2345V40.5117Z" fill="white"/>
</g>
<defs>
<filter id="filter0_d_1014_1810" x="0.795974" y="0.750977" width="169.235" height="169.235" filterUnits="userSpaceOnUse" color-interpolation-filters="sRGB">
<feFlood flood-opacity="0" result="BackgroundImageFix"/>
<feColorMatrix in="SourceAlpha" type="matrix" values="0 0 0 0 0 0 0 0 0 0 0 0 0 0 0 0 0 0 127 0" result="hardAlpha"/>
<feOffset dy="7.43889"/>
<feGaussianBlur stdDeviation="3.71944"/>
<feComposite in2="hardAlpha" operator="out"/>
<feColorMatrix type="matrix" values="0 0 0 0 0 0 0 0 0 0 0 0 0 0 0 0 0 0 0.25 0"/>
<feBlend mode="normal" in2="BackgroundImageFix" result="effect1_dropShadow_1014_1810"/>
<feBlend mode="normal" in="SourceGraphic" in2="effect1_dropShadow_1014_1810" result="shape"/>
</filter>
</defs>
</svg>
