<svg width="170" height="170" viewBox="0 0 170 170" fill="none" xmlns="http://www.w3.org/2000/svg">
<g filter="url(#filter0_d_1014_1838)">
<rect x="7.70459" y="0.750977" width="154.357" height="154.357" rx="15.3779" fill="#D4E5ED"/>
<rect x="17.0024" y="10.0498" width="137.619" height="137.619" rx="15.3779" fill="#FF730E"/>
<path d="M46.2501 116.277V71.0487C46.2501 68.9856 46.2501 66.8829 46.2501 64.7405C46.3295 62.5187 46.3692 60.2573 46.3692 57.9562C43.7507 60.3367 40.8545 62.4394 37.6805 64.2644C34.5066 66.0101 31.174 67.2003 27.6827 67.8351L25.7783 50.9339C27.8414 50.7752 30.0234 50.2595 32.3245 49.3866C34.705 48.5138 37.0458 47.4426 39.3469 46.173C41.648 44.9035 43.711 43.5545 45.536 42.1263C47.361 40.6187 48.7496 39.1507 49.7018 37.7224H66.0078V116.277H46.2501Z" fill="white"/>
<path d="M103.698 36.5322C110.919 36.5322 116.949 38.0795 121.789 41.1741C126.709 44.1893 130.399 48.6725 132.858 54.6236C135.318 60.5747 136.548 67.9541 136.548 76.7617C136.548 86.2835 135.12 94.0596 132.263 100.09C129.486 106.041 125.638 110.445 120.718 113.302C115.798 116.079 110.125 117.467 103.698 117.467C96.874 117.467 90.9228 116.118 85.8446 113.421C80.8456 110.643 77.1163 106.279 74.6565 100.328L92.9859 93.0678C93.6207 95.845 94.8109 98.0271 96.5566 99.614C98.3816 101.201 100.881 101.994 104.055 101.994C106.515 101.994 108.657 101.518 110.482 100.566C112.307 99.5347 113.775 98.0667 114.886 96.1624C116.076 94.258 116.949 91.9569 117.504 89.2591C118.06 86.4819 118.338 83.308 118.338 79.7373C118.338 79.4199 118.338 79.1422 118.338 78.9041C118.338 78.5868 118.338 78.2297 118.338 77.8329H117.981C117.108 80.2134 115.679 82.1574 113.696 83.665C111.712 85.1726 109.451 86.3232 106.911 87.1167C104.372 87.8308 101.754 88.1879 99.056 88.1879C94.1364 88.1879 89.7326 87.196 85.8446 85.2123C82.0359 83.1493 79.0603 80.2927 76.9179 76.6427C74.7755 72.9134 73.7043 68.5889 73.7043 63.6693C73.7043 58.0356 74.9342 53.235 77.394 49.2676C79.9331 45.2208 83.4244 42.0866 87.8679 39.8648C92.3908 37.6431 97.6674 36.5322 103.698 36.5322ZM103.698 52.2432C100.286 52.2432 97.5484 53.1953 95.4854 55.0997C93.5017 57.0041 92.5098 59.7019 92.5098 63.1932C92.5098 66.3671 93.5413 68.8666 95.6044 70.6916C97.6674 72.4373 100.365 73.3101 103.698 73.3101C105.84 73.3101 107.745 72.8737 109.411 72.0009C111.157 71.128 112.506 69.9378 113.458 68.4302C114.41 66.8432 114.886 64.9785 114.886 62.8361C114.886 60.6144 114.41 58.7497 113.458 57.2421C112.506 55.6551 111.157 54.4252 109.411 53.5524C107.745 52.6796 105.84 52.2432 103.698 52.2432Z" fill="white"/>
</g>
<defs>
<filter id="filter0_d_1014_1838" x="0.265701" y="0.750977" width="169.235" height="169.235" filterUnits="userSpaceOnUse" color-interpolation-filters="sRGB">
<feFlood flood-opacity="0" result="BackgroundImageFix"/>
<feColorMatrix in="SourceAlpha" type="matrix" values="0 0 0 0 0 0 0 0 0 0 0 0 0 0 0 0 0 0 127 0" result="hardAlpha"/>
<feOffset dy="7.43889"/>
<feGaussianBlur stdDeviation="3.71944"/>
<feComposite in2="hardAlpha" operator="out"/>
<feColorMatrix type="matrix" values="0 0 0 0 0 0 0 0 0 0 0 0 0 0 0 0 0 0 0.25 0"/>
<feBlend mode="normal" in2="BackgroundImageFix" result="effect1_dropShadow_1014_1838"/>
<feBlend mode="normal" in="SourceGraphic" in2="effect1_dropShadow_1014_1838" result="shape"/>
</filter>
</defs>
</svg>
