<svg width="171" height="171" viewBox="0 0 171 171" fill="none" xmlns="http://www.w3.org/2000/svg">
<g filter="url(#filter0_d_1014_1802)">
<rect x="8.23486" y="0.964844" width="154.357" height="154.357" rx="15.3779" fill="#D4E5ED"/>
<rect x="17.5332" y="10.2646" width="137.619" height="137.619" rx="15.3779" fill="#FF730E"/>
<path d="M85.7702 118.351V73.1221C85.7702 71.0591 85.7702 68.9563 85.7702 66.8139C85.8495 64.5922 85.8892 62.3308 85.8892 60.0297C83.2707 62.4101 80.3745 64.5128 77.2006 66.3379C74.0266 68.0835 70.694 69.2737 67.2027 69.9085L65.2983 53.0074C67.3614 52.8487 69.5435 52.3329 71.8446 51.4601C74.225 50.5872 76.5658 49.516 78.8669 48.2465C81.168 46.9769 83.231 45.628 85.056 44.1997C86.881 42.6921 88.2696 41.2242 89.2218 39.7959H105.528V118.351H85.7702Z" fill="white"/>
</g>
<defs>
<filter id="filter0_d_1014_1802" x="0.795974" y="0.964844" width="169.235" height="169.235" filterUnits="userSpaceOnUse" color-interpolation-filters="sRGB">
<feFlood flood-opacity="0" result="BackgroundImageFix"/>
<feColorMatrix in="SourceAlpha" type="matrix" values="0 0 0 0 0 0 0 0 0 0 0 0 0 0 0 0 0 0 127 0" result="hardAlpha"/>
<feOffset dy="7.43889"/>
<feGaussianBlur stdDeviation="3.71944"/>
<feComposite in2="hardAlpha" operator="out"/>
<feColorMatrix type="matrix" values="0 0 0 0 0 0 0 0 0 0 0 0 0 0 0 0 0 0 0.25 0"/>
<feBlend mode="normal" in2="BackgroundImageFix" result="effect1_dropShadow_1014_1802"/>
<feBlend mode="normal" in="SourceGraphic" in2="effect1_dropShadow_1014_1802" result="shape"/>
</filter>
</defs>
</svg>
