<?xml version="1.0" standalone="no"?>
<!DOCTYPE svg PUBLIC "-//W3C//DTD SVG 20010904//EN"
 "http://www.w3.org/TR/2001/REC-SVG-20010904/DTD/svg10.dtd">
<svg version="1.0" xmlns="http://www.w3.org/2000/svg"
 width="1280.000000pt" height="1280.000000pt" viewBox="0 0 1280.000000 1280.000000"
 preserveAspectRatio="xMidYMid meet">
<metadata>
Created by potrace 1.15, written by Peter Selinger 2001-2017
</metadata>
<g transform="translate(0.000000,1280.000000) scale(0.100000,-0.100000)"
fill="#000000" stroke="none">
<path d="M8595 12701 c-480 -247 -791 -486 -1008 -777 l-61 -81 -1595 -5
c-878 -3 -1681 -2 -1786 3 -333 15 -650 48 -905 96 -301 55 -428 43 -925 -87
-123 -32 -281 -68 -352 -79 -342 -57 -471 -93 -663 -183 -394 -185 -751 -532
-945 -918 -39 -78 -44 -96 -59 -225 -21 -187 -43 -457 -56 -695 -14 -265 -30
-1029 -30 -1450 -1 -613 -22 -1221 -56 -1600 -8 -91 -19 -235 -24 -321 -7
-120 -20 -211 -59 -405 -55 -275 -71 -383 -71 -490 0 -137 42 -294 106 -396
l25 -39 -15 -102 c-30 -206 -38 -309 -43 -618 -10 -560 17 -846 201 -2109 41
-283 86 -618 100 -745 23 -208 32 -318 54 -659 l7 -110 100 -40 c235 -93 777
-317 862 -354 202 -90 405 -135 933 -203 414 -54 583 -58 1241 -30 767 33 823
34 1299 22 250 -6 811 -20 1245 -31 435 -11 905 -22 1045 -26 140 -4 797 -8
1460 -9 1108 -1 1215 -2 1330 -19 102 -15 161 -17 320 -12 270 8 331 14 995
101 168 23 342 39 460 43 174 7 195 10 246 34 72 33 154 114 209 206 23 40 77
153 120 250 94 216 116 261 174 345 41 60 47 76 75 218 43 208 90 496 152 924
l52 360 -13 175 c-18 264 -24 1027 -11 1393 12 325 18 460 47 1112 22 466 25
1364 6 1650 -9 127 -22 240 -37 310 -91 420 -124 746 -170 1670 -45 906 -78
1209 -181 1675 -68 305 -146 408 -503 673 -97 71 -205 154 -241 183 -58 46
-77 55 -165 78 -128 32 -319 67 -615 111 -506 76 -550 89 -666 197 -70 66
-125 143 -246 343 -178 294 -213 332 -391 419 -73 36 -258 115 -411 176 -154
61 -291 117 -305 124 -57 29 -62 28 -256 -73z m440 -891 c31 -11 80 -34 107
-50 41 -25 292 -202 307 -216 10 -10 62 -349 85 -559 47 -434 56 -687 65
-1865 7 -879 6 -1091 -4 -1116 -46 -111 -184 -78 -419 101 -191 145 -342 208
-686 290 -85 20 -171 41 -191 46 l-36 9 -7 187 c-4 104 -16 339 -27 523 -38
637 -35 1432 6 1549 12 36 43 189 89 446 47 265 104 417 193 515 61 68 106 95
195 119 40 11 84 24 98 30 44 17 162 13 225 -9z m-1904 -1077 c172 -1241 238
-1767 228 -1812 -5 -24 -14 -177 -18 -340 -10 -331 -18 -380 -72 -425 -17 -14
-40 -26 -52 -26 -35 1 -102 35 -190 99 -200 144 -405 211 -647 211 -263 0
-521 -83 -771 -248 -165 -110 -297 -242 -445 -448 l-21 -29 -379 0 c-382 -1
-400 -2 -568 -42 -69 -16 -70 -17 -191 -137 -67 -67 -197 -209 -290 -316 -268
-311 -273 -316 -357 -346 -227 -82 -419 -210 -811 -541 -117 -99 -251 -209
-298 -246 l-87 -67 -6 -67 c-12 -116 -46 -397 -82 -671 -91 -702 -109 -927
-109 -1412 0 -426 3 -463 61 -680 26 -101 101 -268 154 -344 49 -72 194 -163
517 -324 100 -50 241 -123 315 -163 73 -39 160 -82 193 -96 195 -82 380 -232
586 -475 159 -187 194 -274 224 -555 28 -267 44 -387 59 -443 8 -30 13 -56 11
-58 -16 -16 -237 -24 -730 -25 -454 -1 -595 1 -650 12 -189 36 -399 105 -685
224 -136 57 -181 70 -360 106 -113 23 -242 53 -287 66 -97 30 -243 102 -297
146 l-39 33 6 160 c7 159 15 253 62 701 34 320 48 588 40 735 -18 335 -76 571
-199 807 l-56 106 0 211 c0 240 -8 391 -50 901 -16 198 -35 434 -42 525 -17
218 -17 850 0 990 55 446 78 539 197 806 163 362 183 419 215 619 50 311 32
440 -81 562 l-39 43 -2 832 c-1 458 0 853 1 878 5 108 45 198 186 420 51 80
99 159 108 175 14 29 21 31 173 63 365 75 718 121 1164 151 85 6 184 13 220
16 36 2 639 9 1340 14 701 5 1370 14 1485 20 450 24 869 65 1165 115 74 12
137 21 138 20 2 -1 31 -195 63 -431z m3769 256 c264 -70 470 -297 529 -582 18
-91 28 -112 134 -300 63 -111 123 -220 132 -242 89 -209 97 -359 29 -520 -14
-33 -34 -100 -44 -150 -10 -49 -32 -137 -49 -195 -63 -210 -70 -320 -27 -422
9 -20 52 -140 97 -265 233 -655 334 -1021 420 -1533 19 -111 15 -236 -25 -750
-31 -410 -49 -651 -86 -1200 -17 -251 -98 -1509 -121 -1880 l-21 -355 -70
-180 c-236 -609 -319 -762 -681 -1270 l-143 -200 -677 -3 -678 -2 6 32 c10 62
54 424 95 796 l42 373 83 142 c358 618 775 1219 1173 1690 81 96 77 85 116
300 39 211 61 357 116 787 28 217 57 438 66 490 8 52 15 108 16 125 2 50 -77
293 -204 630 -66 176 -133 358 -149 404 -16 47 -47 114 -68 150 -180 304 -303
642 -358 976 -22 138 -25 482 -4 630 11 83 11 158 2 435 -7 184 -15 729 -18
1211 l-6 877 24 7 c84 27 231 24 349 -6z m-1890 -3632 c96 -72 240 -182 320
-245 313 -249 800 -667 800 -687 0 -7 11 -114 25 -237 24 -219 42 -410 106
-1135 l33 -362 -39 -63 c-37 -61 -182 -287 -500 -778 -582 -899 -834 -1454
-934 -2055 -23 -133 -41 -324 -41 -427 l0 -67 -42 -5 c-24 -3 -176 -10 -338
-16 -511 -19 -1254 -49 -1565 -65 -165 -8 -408 -17 -540 -20 -303 -7 -619 -22
-755 -36 -127 -13 -332 -45 -380 -59 -19 -6 -81 -14 -137 -17 l-103 -6 -1 344
c-1 189 -4 357 -8 373 -6 30 -95 98 -1713 1298 -179 134 -325 244 -324 246 2
1 72 -15 157 -37 180 -47 364 -88 770 -171 l296 -61 77 46 c302 178 625 293
1256 445 206 50 387 96 495 127 116 32 284 28 507 -14 85 -16 89 -16 190 6
138 31 332 90 519 157 487 177 594 211 671 218 324 28 494 188 618 578 124
395 155 485 194 565 49 100 114 192 172 243 176 156 238 253 238 370 0 132
-73 235 -331 466 -197 177 -273 256 -337 354 -28 41 -65 98 -84 126 -121 185
-88 464 82 691 54 72 130 136 200 169 l50 23 110 -76 c61 -42 190 -135 286
-206z m-2374 -58 c155 -48 286 -139 405 -281 38 -45 40 -50 49 -150 5 -56 14
-249 20 -428 12 -381 22 -512 55 -675 31 -155 64 -253 133 -395 53 -110 56
-119 56 -195 1 -139 -45 -213 -302 -481 l-143 -149 -76 0 -75 0 -363 371 -363
370 -17 80 c-9 43 -43 187 -76 319 -126 502 -130 535 -133 1125 -1 143 2 149
134 276 112 110 143 132 245 181 137 65 306 77 451 32z m-1818 -414 c72 -22
172 -93 297 -212 l106 -102 20 -198 c10 -109 41 -441 68 -738 41 -442 53 -550
70 -593 12 -29 62 -129 112 -222 102 -191 129 -264 129 -353 0 -108 -64 -203
-179 -268 -31 -17 -65 -53 -118 -127 -110 -151 -124 -150 -279 11 -405 417
-672 918 -758 1424 -42 246 -40 688 4 828 40 126 106 246 236 427 83 116 74
107 120 123 52 19 109 18 172 0z m-1219 -1345 c38 -234 84 -515 102 -625 31
-198 32 -201 75 -265 24 -36 95 -125 157 -198 179 -206 229 -298 213 -384 -8
-44 -66 -100 -140 -134 -28 -13 -79 -41 -113 -62 -214 -134 -436 -91 -654 127
-159 159 -298 428 -379 736 -67 256 14 542 241 849 128 173 401 429 420 394 4
-7 39 -205 78 -438z"/>
<path d="M3469 10335 c-63 -23 -121 -56 -274 -155 -259 -168 -360 -207 -503
-195 -153 13 -295 -36 -398 -140 -164 -162 -199 -409 -92 -634 43 -89 158
-204 251 -250 53 -26 86 -34 145 -38 181 -13 331 62 714 353 73 55 161 117
195 138 210 125 349 366 330 572 -13 139 -109 266 -251 333 -74 35 -69 34
-117 16z"/>
<path d="M5452 9900 c-136 -29 -383 -162 -582 -314 -52 -40 -161 -100 -360
-197 -357 -176 -418 -218 -475 -329 -47 -90 -3 -232 114 -368 l20 -23 83 62
c88 66 212 129 290 148 69 16 215 14 279 -5 110 -33 225 -102 330 -199 34 -32
59 -46 98 -54 106 -23 183 -11 435 69 71 22 146 43 167 46 22 4 41 9 43 13 2
3 5 200 7 436 l3 430 -23 44 c-32 61 -110 142 -191 197 -60 41 -75 47 -131 50
-35 1 -84 -1 -107 -6z"/>
<path d="M2519 8049 c-30 -4 -80 -17 -110 -29 -328 -128 -591 -425 -588 -664
1 -131 29 -155 179 -155 170 -1 304 53 370 148 39 57 68 92 250 297 155 175
192 233 192 304 0 60 -52 87 -197 103 -22 2 -65 1 -96 -4z"/>
<path d="M10880 2956 c-25 -7 -57 -18 -72 -24 -105 -43 -284 -322 -373 -580
-56 -162 -79 -262 -130 -565 -8 -47 38 -59 216 -55 l147 3 198 424 c135 288
211 439 237 470 150 179 104 325 -107 337 -43 2 -89 -1 -116 -10z"/>
<path d="M5413 3283 c-33 -3 -49 -12 -77 -43 -107 -119 -103 -245 10 -351 63
-58 140 -95 240 -116 68 -14 91 -14 167 -4 215 31 280 10 550 -173 195 -132
268 -170 314 -161 45 8 93 57 178 181 38 54 79 111 92 125 l24 26 -63 63
c-267 267 -657 417 -1169 449 -162 11 -185 11 -266 4z"/>
</g>
</svg>
