<?xml version="1.0" standalone="no"?>
<!DOCTYPE svg PUBLIC "-//W3C//DTD SVG 20010904//EN"
 "http://www.w3.org/TR/2001/REC-SVG-20010904/DTD/svg10.dtd">
<svg version="1.0" xmlns="http://www.w3.org/2000/svg"
 width="1280.000000pt" height="511.000000pt" viewBox="0 0 1280.000000 511.000000"
 preserveAspectRatio="xMidYMid meet">
<metadata>
Created by potrace 1.15, written by Peter Selinger 2001-2017
</metadata>
<g transform="translate(0.000000,511.000000) scale(0.100000,-0.100000)"
fill="#000000" stroke="none">
<path d="M7689 4199 c-158 -9 -298 -19 -312 -21 -18 -2 -136 -123 -437 -448
-226 -245 -414 -451 -417 -457 -3 -7 110 -136 250 -286 l255 -273 103 -45 104
-45 0 -430 0 -429 -295 -37 c-162 -20 -296 -37 -297 -37 -2 -1 -3 -176 -3
-390 l0 -390 221 -150 220 -151 1022 155 c562 85 1032 158 1045 160 l22 5 0
384 c0 295 -3 386 -12 393 -7 5 -126 60 -265 121 -204 90 -258 110 -283 106
l-30 -6 0 1085 c0 597 -4 1088 -8 1091 -4 2 -117 30 -249 60 -271 63 -232 61
-634 35z"/>
<path d="M2076 4124 c-118 -16 -256 -54 -329 -90 -115 -58 -320 -178 -377
-220 -72 -55 -133 -124 -193 -222 -55 -89 -132 -265 -124 -285 3 -7 142 -114
309 -237 166 -123 308 -227 313 -231 6 -4 62 37 127 92 85 72 125 114 148 154
19 33 43 60 57 66 34 13 183 11 224 -2 81 -27 128 -105 129 -211 0 -98 -7
-110 -111 -175 -237 -150 -422 -278 -509 -351 -147 -125 -421 -399 -482 -482
-166 -226 -249 -487 -249 -785 1 -119 30 -377 45 -392 6 -7 125 -14 1410 -88
528 -30 963 -52 967 -48 4 5 37 78 73 165 l66 156 0 360 0 360 -82 6 c-46 3
-294 15 -553 27 -258 11 -513 23 -565 27 l-95 7 210 124 c355 210 525 334 647
473 63 72 253 349 292 426 98 193 117 449 50 678 -108 375 -450 640 -908 703
-104 15 -368 12 -490 -5z"/>
<path d="M10307 4024 c-423 -65 -734 -329 -839 -712 -18 -63 -22 -106 -22
-232 0 -143 2 -161 27 -235 34 -102 92 -191 184 -282 40 -40 73 -74 73 -75 0
-2 -36 -41 -80 -88 -145 -154 -235 -295 -292 -460 -31 -90 -33 -102 -33 -240
0 -124 3 -156 23 -220 27 -83 81 -197 121 -250 246 -332 341 -439 456 -517
215 -145 508 -210 820 -183 397 34 688 154 910 374 319 317 403 784 200 1111
-40 65 -154 184 -235 247 -27 20 -33 29 -25 41 6 8 36 53 67 99 109 160 184
341 209 501 16 98 5 273 -21 367 -57 200 -186 364 -381 482 -77 47 -462 210
-560 238 -175 49 -417 63 -602 34z m453 -943 c0 -77 -26 -174 -72 -264 -32
-64 -28 -63 -116 -26 -32 14 -47 28 -59 56 -21 51 -13 150 17 197 37 61 116
105 193 106 l37 0 0 -69z m-75 -1197 c111 -45 115 -47 115 -76 0 -82 -63 -179
-142 -219 -48 -24 -156 -49 -217 -49 l-44 0 5 71 c4 56 14 87 46 152 34 69
103 167 118 167 2 0 56 -21 119 -46z"/>
<path d="M4902 4019 c-419 -40 -721 -250 -898 -624 -116 -244 -176 -536 -190
-923 -13 -345 30 -695 117 -953 34 -103 115 -262 169 -333 73 -98 340 -406
386 -445 110 -97 258 -170 419 -207 111 -26 393 -26 515 -1 268 57 448 149
614 314 236 236 374 584 428 1083 20 186 14 614 -11 801 -38 283 -111 518
-218 702 -64 109 -220 268 -322 327 -91 53 -463 202 -571 230 -82 21 -242 40
-315 38 -22 0 -77 -4 -123 -9z m296 -1071 c28 -125 36 -236 36 -508 0 -313
-14 -457 -59 -599 -32 -99 -93 -197 -112 -178 -39 39 -53 746 -20 971 10 65
29 152 42 195 24 75 76 171 93 171 5 0 14 -24 20 -52z"/>
</g>
</svg>
