<?xml version="1.0" standalone="no"?>
<!DOCTYPE svg PUBLIC "-//W3C//DTD SVG 20010904//EN"
 "http://www.w3.org/TR/2001/REC-SVG-20010904/DTD/svg10.dtd">
<svg version="1.0" xmlns="http://www.w3.org/2000/svg"
 width="1268.000000pt" height="1280.000000pt" viewBox="0 0 1268.000000 1280.000000"
 preserveAspectRatio="xMidYMid meet">
<metadata>
Created by potrace 1.15, written by Peter Selinger 2001-2017
</metadata>
<g transform="translate(0.000000,1280.000000) scale(0.100000,-0.100000)"
fill="#000000" stroke="none">
<path d="M3495 12784 c-751 -39 -1395 -78 -1482 -90 -26 -4 -60 -20 -95 -46
-69 -53 -140 -85 -225 -103 -146 -31 -288 -12 -559 76 -86 28 -160 47 -164 42
-3 -4 -16 -45 -28 -90 -57 -219 -142 -395 -382 -793 -91 -151 -183 -306 -204
-344 l-39 -70 -3 -140 c-2 -78 -9 -514 -14 -971 -6 -456 -15 -1113 -20 -1460
-5 -346 -14 -1030 -21 -1520 l-11 -890 -35 -82 c-19 -46 -46 -127 -60 -180
-25 -92 -27 -112 -27 -323 -1 -243 10 -332 85 -685 41 -194 76 -412 84 -525
13 -168 -17 -305 -154 -710 -113 -335 -135 -435 -136 -600 0 -133 13 -198 60
-291 37 -74 69 -372 105 -959 21 -355 47 -730 57 -843 l6 -68 66 -60 c78 -72
219 -145 356 -184 50 -14 234 -55 410 -91 245 -49 358 -77 480 -119 325 -110
700 -204 980 -246 228 -33 385 -42 595 -34 372 16 403 11 825 -125 282 -91
338 -104 495 -115 l95 -6 250 86 c360 124 449 146 620 152 202 7 297 -19 468
-129 184 -117 302 -125 657 -43 80 19 186 39 235 45 135 16 210 28 309 50 208
45 510 51 695 15 214 -42 444 -148 599 -279 24 -20 52 -36 62 -36 10 0 48 14
85 31 60 29 72 31 130 25 79 -8 258 8 385 34 52 11 218 54 368 96 439 121 418
118 832 119 311 0 364 3 430 19 121 30 223 73 310 132 45 30 85 54 90 54 5 0
45 15 89 34 175 74 356 225 530 445 45 57 120 140 165 185 157 155 246 324
295 568 28 138 39 244 56 553 8 154 23 339 33 410 12 93 17 191 16 345 -1 212
-7 276 -68 842 -43 392 -49 502 -43 791 8 365 43 563 153 842 109 279 123 390
154 1170 14 365 33 484 115 735 46 141 85 318 107 480 19 140 15 588 -6 775
-37 327 -36 326 -89 386 -57 65 -110 170 -134 264 -23 93 -22 310 2 510 10 83
19 200 19 260 1 102 -2 118 -37 220 -21 61 -100 234 -176 385 -184 368 -175
341 -236 675 -60 324 -113 453 -235 575 -51 51 -97 86 -145 110 -38 19 -81 49
-95 65 -90 109 -206 176 -365 210 -38 8 -171 19 -295 25 -281 13 -395 26 -487
55 -127 40 -210 107 -273 219 l-31 55 -77 17 c-90 20 -203 22 -567 11 -297
-10 -326 -14 -1194 -167 -777 -136 -1147 -188 -1596 -224 -104 -9 -253 -22
-330 -30 -573 -61 -888 0 -1131 218 -37 33 -87 87 -111 120 -25 34 -46 62 -48
64 -18 19 -1019 94 -1210 91 -38 -1 -182 -7 -320 -15z m636 -389 c62 -22 127
-75 311 -252 90 -87 185 -172 210 -188 42 -26 55 -45 132 -190 261 -491 500
-1027 828 -1855 137 -344 478 -1201 592 -1485 78 -192 93 -221 148 -275 87
-85 214 -136 448 -179 201 -37 307 -61 367 -82 32 -11 64 -21 71 -22 19 -3
142 318 359 938 272 779 389 1097 527 1427 88 211 218 490 273 585 25 43 106
188 181 323 74 135 160 285 190 335 137 220 286 384 462 506 127 89 175 112
231 113 145 3 161 -174 73 -799 -68 -476 -143 -835 -385 -1830 -289 -1189
-375 -1687 -415 -2407 l-6 -107 -35 -7 c-57 -11 -123 4 -210 45 -100 48 -150
82 -413 276 -203 149 -297 213 -375 252 -80 40 -552 95 -1485 173 -352 29
-660 58 -879 83 l-104 12 -77 190 c-96 239 -182 438 -427 985 -210 469 -371
840 -453 1046 -164 407 -320 889 -350 1074 -7 41 -30 150 -51 243 -84 364
-102 519 -79 657 18 106 42 171 104 274 90 151 134 177 237 141z m-1716 -499
c129 -22 193 -41 268 -77 142 -67 204 -155 211 -294 3 -62 20 -136 75 -321
124 -425 322 -1034 509 -1569 51 -143 100 -294 111 -336 28 -109 82 -248 214
-544 193 -436 235 -598 191 -744 l-15 -52 -63 6 c-94 10 -198 -9 -291 -55
-138 -67 -202 -130 -445 -435 -99 -124 -184 -215 -295 -315 -28 -25 -87 -86
-133 -137 -45 -51 -176 -179 -290 -285 -340 -316 -465 -450 -578 -621 -59 -90
-126 -224 -154 -312 -13 -38 -40 -104 -61 -145 -104 -209 -139 -447 -119 -815
5 -110 13 -276 17 -370 l6 -170 57 -135 c95 -224 200 -442 453 -934 132 -258
251 -496 264 -530 114 -294 247 -449 677 -791 290 -229 400 -333 502 -468 58
-77 154 -244 154 -268 0 -2 -89 -4 -197 -4 -237 -1 -330 -12 -838 -103 -368
-66 -371 -66 -555 -66 -159 0 -198 3 -280 23 -274 67 -538 215 -752 421 l-99
95 -14 235 c-33 538 -29 790 16 1000 33 157 98 506 121 650 29 184 32 504 5
630 -26 121 -43 171 -99 288 -73 155 -82 203 -82 427 0 176 3 208 42 435 54
323 62 391 62 541 0 196 -24 298 -115 500 -143 314 -202 653 -176 1009 12 173
55 451 91 590 63 247 81 687 78 1920 l-2 995 32 147 c42 191 73 297 127 431
65 162 126 258 230 362 136 137 253 190 450 206 162 12 587 3 690 -15z m5753
-104 c6 -42 -47 -111 -244 -313 -211 -217 -277 -298 -377 -461 -129 -207 -218
-405 -392 -869 -171 -454 -236 -609 -322 -768 l-46 -85 -39 45 c-151 173 -319
494 -464 882 -107 287 -235 681 -245 752 -11 85 -55 182 -166 361 -93 149
-118 196 -128 241 -18 88 17 100 228 82 204 -18 751 -18 942 -1 383 35 948
111 1060 142 41 11 95 18 130 17 54 -2 60 -4 63 -25z m2292 -154 c98 -48 201
-73 440 -103 324 -42 446 -80 530 -166 47 -49 63 -95 90 -262 27 -174 59 -317
136 -622 100 -392 141 -573 171 -755 45 -275 43 -372 -62 -2595 -89 -1862
-178 -3326 -276 -4500 -16 -198 -34 -443 -39 -543 -15 -282 -58 -456 -159
-647 -152 -289 -391 -481 -672 -540 -39 -8 -94 -15 -122 -15 -29 0 -90 -7
-136 -14 -78 -13 -87 -12 -128 6 -98 43 -254 41 -628 -7 -374 -48 -512 -20
-579 118 -14 29 -28 77 -32 107 -3 30 -19 96 -35 146 -144 461 -107 956 111
1491 28 67 70 138 156 260 243 346 296 425 365 540 169 282 249 502 283 774 8
63 26 152 41 199 56 183 69 391 40 627 -17 134 -29 195 -109 558 -56 253 -80
382 -95 522 -5 43 -22 130 -39 193 -80 305 -71 566 42 1220 20 112 43 258 51
325 10 76 65 321 150 665 139 565 191 805 225 1038 11 75 36 216 54 312 98
501 139 915 140 1397 1 172 3 312 6 310 3 -1 39 -19 80 -39z m-6177 -4789
c262 -161 320 -201 361 -248 74 -86 202 -285 326 -506 62 -110 156 -267 210
-350 325 -503 450 -778 450 -992 0 -188 -95 -265 -352 -283 -117 -9 -133 -8
-178 10 -250 98 -473 275 -705 555 -106 128 -175 225 -380 531 -92 137 -191
276 -220 309 -112 129 -168 228 -211 372 -23 74 -27 107 -27 213 0 111 3 134
27 205 43 125 99 207 190 275 54 41 162 99 184 100 8 0 154 -86 325 -191z
m3267 56 c124 -62 389 -218 630 -370 444 -280 625 -392 720 -445 201 -113 212
-125 352 -404 l101 -201 5 -119 c22 -586 -248 -1265 -887 -2225 -108 -163
-224 -343 -256 -401 -113 -201 -179 -380 -210 -573 -3 -21 -6 -101 -6 -178 0
-136 -1 -139 -22 -139 -12 0 -69 -4 -127 -10 -107 -10 -794 -65 -1485 -120
-209 -16 -578 -45 -821 -65 -242 -19 -478 -35 -525 -35 -46 0 -131 -9 -189
-21 -220 -43 -324 -37 -335 20 -10 48 -78 174 -136 251 -113 150 -242 257
-619 515 -261 179 -365 256 -478 357 -39 35 -92 78 -119 97 -173 121 -281 439
-187 551 53 62 131 62 272 1 116 -51 234 -66 512 -66 258 1 349 11 577 66 186
44 465 140 683 233 48 21 124 44 175 53 50 8 142 30 206 48 370 106 638 308
800 603 29 53 70 117 90 142 21 25 50 72 65 105 36 79 43 231 20 427 -9 75
-16 167 -16 204 0 37 -5 96 -11 131 -15 87 -5 149 31 185 35 35 68 36 139 3
75 -35 161 -126 208 -221 36 -74 38 -83 39 -177 l1 -99 104 -105 c274 -278
495 -432 619 -433 94 0 129 60 130 217 l0 102 -64 98 c-35 54 -113 184 -174
289 -208 360 -277 459 -413 589 -114 109 -251 193 -579 352 -151 74 -318 163
-370 198 -119 79 -216 180 -261 271 -33 66 -34 73 -34 184 0 63 3 123 7 133 7
16 59 17 888 17 l880 0 70 -35z m-4694 -1194 c22 -10 63 -39 91 -63 66 -59
127 -93 313 -173 295 -127 388 -187 465 -303 404 -600 477 -735 479 -897 2
-143 -82 -236 -264 -293 -36 -11 -100 -37 -144 -57 -69 -32 -85 -36 -130 -31
-28 3 -91 10 -141 15 -147 14 -236 59 -322 164 -47 56 -170 297 -198 387 -29
90 -78 161 -217 307 -142 149 -186 210 -211 288 -76 237 -83 279 -68 370 21
131 96 255 175 290 45 19 124 18 172 -4z"/>
<path d="M1674 9476 c-58 -18 -147 -80 -195 -135 -56 -64 -117 -193 -125 -263
-7 -61 7 -244 32 -416 55 -374 220 -726 449 -956 45 -44 115 -105 157 -134 64
-43 80 -51 100 -43 48 18 82 80 122 220 15 52 40 119 55 150 42 84 55 150 48
255 -9 140 -44 231 -211 541 -130 240 -161 331 -176 506 -13 156 -50 236 -124
270 -48 22 -75 23 -132 5z"/>
<path d="M10857 8416 c-120 -145 -198 -339 -252 -631 -13 -71 -44 -292 -70
-490 -25 -198 -50 -377 -55 -399 -4 -21 -6 -45 -3 -52 27 -70 250 35 416 195
80 77 85 89 86 206 0 122 13 191 90 482 75 285 95 395 88 494 -8 125 -57 193
-159 224 -82 24 -99 21 -141 -29z"/>
<path d="M10700 5636 c-110 -31 -203 -104 -241 -189 -28 -62 -30 -159 -5 -226
11 -30 16 -76 16 -151 0 -127 14 -209 80 -465 90 -351 98 -451 55 -681 -42
-226 -57 -277 -225 -764 -56 -162 -114 -345 -130 -406 -48 -183 -72 -403 -54
-492 11 -53 83 -68 155 -32 81 42 157 173 296 509 103 253 141 333 185 391
132 175 251 457 308 729 78 368 65 871 -32 1271 -14 58 -21 122 -22 200 -1
105 -4 120 -30 173 -58 120 -206 175 -356 133z"/>
<path d="M6767 4166 c-60 -16 -111 -65 -176 -166 -140 -218 -210 -433 -212
-647 -1 -187 40 -304 149 -428 31 -35 35 -36 63 -25 82 35 143 160 214 440 34
138 81 279 103 311 9 15 36 50 59 78 74 90 93 212 48 302 -30 60 -95 118 -149
134 -27 8 -50 15 -50 14 -1 0 -23 -6 -49 -13z"/>
<path d="M5490 3214 c-83 -33 -203 -57 -415 -84 -368 -46 -506 -83 -577 -155
-52 -52 -45 -115 23 -210 36 -50 130 -105 219 -126 84 -20 254 -14 450 16 96
15 247 30 335 34 180 8 221 20 293 85 58 53 85 115 85 201 1 112 -54 199 -153
244 -65 30 -175 27 -260 -5z"/>
</g>
</svg>
