<svg width="170" height="171" viewBox="0 0 170 171" fill="none" xmlns="http://www.w3.org/2000/svg">
<g filter="url(#filter0_d_1014_1818)">
<rect x="7.46924" y="0.964844" width="154.357" height="154.357" rx="15.3779" fill="#D4E5ED"/>
<rect x="16.7681" y="10.2646" width="137.619" height="137.619" rx="15.3779" fill="#FF730E"/>
<path d="M56.4404 118.945V105.853C63.185 101.647 68.9377 97.7195 73.6986 94.0694C78.4595 90.4194 82.3079 86.9678 85.2438 83.7145C88.259 80.4612 90.4807 77.3667 91.909 74.4308C93.3373 71.4949 94.0514 68.6384 94.0514 65.8612C94.0514 62.8459 93.1389 60.3465 91.3139 58.3628C89.5682 56.2997 86.9498 55.2682 83.4584 55.2682C79.7291 55.2682 76.8329 56.6568 74.7698 59.434C72.7068 62.1318 71.5959 66.0992 71.4372 71.3362L53.9409 65.9802C54.0996 60.1084 55.4882 55.1888 58.1067 51.2214C60.8045 47.254 64.4545 44.2785 69.0567 42.2948C73.6589 40.2317 78.8959 39.2002 84.7677 39.2002C89.9253 39.2002 94.3688 39.954 98.0982 41.4616C101.907 42.8899 105.001 44.8339 107.382 47.2937C109.762 49.6741 111.508 52.372 112.619 55.3872C113.809 58.3231 114.404 61.3383 114.404 64.4329C114.404 69.5112 113.095 74.2721 110.476 78.7156C107.858 83.0797 104.049 87.3249 99.0503 91.451C94.1308 95.4977 88.14 99.5841 81.078 103.71V103.829C82.4269 103.75 84.0139 103.671 85.8389 103.591C87.6639 103.512 89.5682 103.472 91.5519 103.472C93.5356 103.393 95.321 103.353 96.9079 103.353H115.356V118.945H56.4404Z" fill="white"/>
</g>
<defs>
<filter id="filter0_d_1014_1818" x="0.0303493" y="0.964844" width="169.235" height="169.235" filterUnits="userSpaceOnUse" color-interpolation-filters="sRGB">
<feFlood flood-opacity="0" result="BackgroundImageFix"/>
<feColorMatrix in="SourceAlpha" type="matrix" values="0 0 0 0 0 0 0 0 0 0 0 0 0 0 0 0 0 0 127 0" result="hardAlpha"/>
<feOffset dy="7.43889"/>
<feGaussianBlur stdDeviation="3.71944"/>
<feComposite in2="hardAlpha" operator="out"/>
<feColorMatrix type="matrix" values="0 0 0 0 0 0 0 0 0 0 0 0 0 0 0 0 0 0 0.25 0"/>
<feBlend mode="normal" in2="BackgroundImageFix" result="effect1_dropShadow_1014_1818"/>
<feBlend mode="normal" in="SourceGraphic" in2="effect1_dropShadow_1014_1818" result="shape"/>
</filter>
</defs>
</svg>
