<?xml version="1.0" encoding="iso-8859-1"?>
<!-- Uploaded to: SVG Repo, www.svgrepo.com, Generator: SVG Repo Mixer Tools -->
<svg fill="#000000" height="800px" width="800px" version="1.1" id="Layer_1" xmlns="http://www.w3.org/2000/svg" xmlns:xlink="http://www.w3.org/1999/xlink" 
	 viewBox="0 0 512 512" xml:space="preserve">
<g>
	<g>
		<path d="M472.129,347.843c-5.396,0-9.77,4.375-9.77,9.77V460.29c0,17.739-14.432,32.169-32.169,32.169H81.811
			c-17.738,0-32.169-14.432-32.169-32.169v-77.056c0-5.396-4.375-9.77-9.77-9.77s-9.77,4.375-9.77,9.77v77.056
			c0,28.514,23.198,51.71,51.71,51.71h348.378c28.514,0,51.71-23.198,51.71-51.71V357.613
			C481.899,352.217,477.525,347.843,472.129,347.843z"/>
	</g>
</g>
<g>
	<g>
		<path d="M472.129,259.691c-5.396,0-9.77,4.375-9.77,9.77v7.816c0,5.396,4.375,9.77,9.77,9.77s9.77-4.375,9.77-9.77v-7.816
			C481.899,264.066,477.525,259.691,472.129,259.691z"/>
	</g>
</g>
<g>
	<g>
		<path d="M232.38,318.861l24.73-25.497c0.767-0.788,1.364-1.769,1.962-2.75c0.767-1.567,1.364-3.336,1.364-5.298
			c0-6.086-4.903-10.99-11.192-10.99h-57.859c-6.097,0-11,4.903-11,10.99c0,6.278,4.903,11.181,11,11.181h31.764l-19.997,20.402
			c-4.136,4.519-4.136,11.384,0.384,15.702c0,0.191,0,0.191,0.192,0.191c1.961,2.355,4.903,3.731,8.059,3.54
			c6.864,0.191,13.538,2.547,18.633,7.845c5.286,5.095,7.845,11.768,7.845,18.633c0,6.876-2.559,13.538-7.845,18.835
			c-5.309,5.104-11.96,7.652-18.846,7.652c-6.864,0-13.538-2.548-18.633-7.654c-4.307-4.307-11.385-4.307-15.69,0
			c-4.328,4.317-4.328,11.384,0,15.702c9.423,9.412,21.98,14.326,34.323,14.326c12.557,0,25.114-4.914,34.536-14.326
			c9.614-9.614,14.326-22.171,14.326-34.536c0-12.354-4.711-24.911-14.326-34.333C242.187,324.361,237.475,321.216,232.38,318.861z"
			/>
	</g>
</g>
<g>
	<g>
		<path d="M332.258,284.956c0-0.076,0-0.152,0-0.227l-0.013-0.018c-0.214-5.767-4.944-10.38-10.763-10.38
			c-1.404,0-2.742,0.276-3.973,0.766c-0.051,0.007-0.103,0.017-0.103,0.017c-0.115,0.033-0.168,0.074-0.224,0.115
			c-0.478,0.208-0.934,0.456-1.374,0.729c-0.073,0.03-0.138,0.068-0.192,0.116c-0.053,0.035-0.111,0.064-0.164,0.1l-23.997,14.247
			c-5.095,2.942-6.864,9.807-3.517,14.71c1.961,3.528,5.479,5.49,9.209,5.49c1.769,0,3.731-0.384,5.5-1.567l7.845-4.509v96.53
			c0,6.076,4.712,10.788,10.788,10.788c5.884,0,10.979-4.712,10.979-10.788v-115.76v-0.039c0.001-0.055,0.008-0.107,0.008-0.16
			C332.266,285.062,332.258,285.01,332.258,284.956z"/>
	</g>
</g>
<g>
	<g>
		<path d="M430.189,63.605h-32.741V34.447C397.448,15.453,381.995,0,363.001,0c-18.995,0-34.447,15.453-34.447,34.447v29.159H183.02
			V34.447C183.02,15.453,167.568,0,148.574,0s-34.447,15.453-34.447,34.447v29.159H81.811c-28.513,0-51.71,23.198-51.71,51.71
			v200.175c0,5.396,4.375,9.77,9.77,9.77s9.77-4.375,9.77-9.77V214.185h412.717v7.512c0,5.396,4.375,9.77,9.77,9.77
			s9.77-4.375,9.77-9.77v-106.38C481.899,86.802,458.703,63.605,430.189,63.605z M348.095,34.447
			c0-8.219,6.687-14.906,14.906-14.906s14.906,6.687,14.906,14.906v69.775c0,8.219-6.687,14.906-14.906,14.906
			c-8.22,0-14.906-6.687-14.906-14.906V34.447z M133.668,34.447c0-8.219,6.687-14.906,14.906-14.906s14.906,6.687,14.906,14.906
			v69.775c0,8.219-6.687,14.906-14.906,14.906s-14.906-6.687-14.906-14.906V34.447z M462.358,194.644H49.642v-79.328
			c0-17.739,14.432-32.169,32.169-32.169h32.317v21.075c0,18.994,15.453,34.447,34.447,34.447s34.447-15.453,34.447-34.447V83.146
			h145.534v21.075c0,18.994,15.453,34.447,34.447,34.447c18.994,0,34.447-15.453,34.447-34.447V83.146h32.741
			c17.739,0,32.169,14.432,32.169,32.169V194.644z"/>
	</g>
</g>
</svg>