<?xml version="1.0" standalone="no"?>
<!DOCTYPE svg PUBLIC "-//W3C//DTD SVG 20010904//EN"
 "http://www.w3.org/TR/2001/REC-SVG-20010904/DTD/svg10.dtd">
<svg version="1.0" xmlns="http://www.w3.org/2000/svg"
 width="1280.000000pt" height="1280.000000pt" viewBox="0 0 1280.000000 1280.000000"
 preserveAspectRatio="xMidYMid meet">
<metadata>
Created by potrace 1.15, written by Peter Selinger 2001-2017
</metadata>
<g transform="translate(0.000000,1280.000000) scale(0.100000,-0.100000)"
fill="#000000" stroke="none">
<path d="M6065 12785 c-85 -23 -140 -51 -293 -149 -185 -118 -227 -142 -282
-161 -77 -27 -375 -52 -895 -75 -619 -27 -702 -31 -723 -36 -12 -2 -93 11
-180 30 -261 58 -365 70 -582 70 -172 0 -210 -4 -320 -27 -69 -14 -144 -33
-168 -41 -42 -15 -45 -15 -95 11 -29 14 -97 56 -152 93 -211 142 -281 163
-514 155 -82 -3 -181 -12 -220 -20 -167 -35 -338 -110 -449 -197 -56 -44 -61
-51 -72 -105 -30 -153 -86 -295 -176 -456 -55 -99 -326 -508 -445 -673 -109
-150 -159 -290 -203 -564 -74 -463 -91 -534 -155 -676 -49 -109 -85 -233 -113
-384 -18 -95 -21 -156 -22 -350 0 -274 6 -337 99 -901 l64 -386 -6 -204 c-4
-133 0 -333 12 -574 27 -555 14 -813 -52 -1070 -41 -160 -45 -194 -40 -300 6
-114 29 -191 84 -282 40 -66 42 -42 -20 -239 -79 -250 -120 -500 -138 -841
-16 -297 -1 -621 56 -1198 32 -325 55 -610 65 -810 7 -128 17 -233 27 -270 25
-94 93 -245 227 -508 68 -133 138 -280 155 -327 18 -46 39 -89 46 -95 7 -5 66
-53 131 -106 122 -98 308 -236 760 -560 l259 -186 180 -7 c919 -34 1771 -136
2659 -316 450 -91 1038 -54 1751 110 157 36 179 39 280 34 61 -2 227 -9 370
-15 143 -6 510 -14 815 -19 480 -7 592 -12 825 -34 717 -70 1010 -8 1310 274
103 98 148 122 240 128 90 6 148 -11 284 -85 58 -31 148 -78 199 -104 152 -78
258 -86 377 -29 22 10 70 30 106 43 325 122 514 337 804 917 37 74 81 154 97
178 38 55 73 131 94 207 15 51 18 113 19 410 1 369 5 408 61 740 43 256 101
512 219 955 56 213 76 363 140 1075 39 428 46 492 76 735 25 199 26 408 4 575
-9 66 -41 237 -71 380 -112 525 -127 675 -105 992 17 241 54 347 221 638 32
55 69 124 84 153 l27 53 -39 47 c-97 117 -214 316 -287 487 -125 294 -194 585
-250 1055 -9 74 -27 187 -40 250 -29 142 -39 227 -65 550 -30 378 -49 505
-102 670 -35 111 -105 252 -159 320 l-38 49 16 76 c29 132 -7 231 -108 296
-63 40 -122 62 -294 109 -78 22 -161 50 -185 64 -25 13 -80 38 -123 55 -401
159 -866 141 -1512 -57 l-120 -37 -1038 -3 -1038 -3 -87 64 c-331 246 -663
391 -947 414 -38 3 -95 12 -125 19 -67 17 -130 17 -195 -1z m300 -977 c67 -35
121 -79 172 -140 34 -42 45 -67 67 -153 153 -610 183 -1163 130 -2350 -29
-649 -20 -1352 20 -1582 40 -222 129 -368 268 -439 97 -49 280 -43 396 14 135
65 201 159 323 454 106 257 136 345 439 1288 197 613 360 1005 520 1255 32 50
110 184 175 299 142 255 215 364 299 445 73 70 115 91 181 91 56 0 88 -16 139
-68 l38 -40 -6 -184 c-38 -1015 -284 -1914 -888 -3233 l-110 -240 5 -165 c4
-91 20 -284 36 -430 16 -146 32 -296 36 -335 3 -38 8 -94 11 -123 l6 -53 -29
7 c-146 35 -403 138 -813 326 -470 217 -407 196 -613 208 -240 14 -513 12
-1002 -5 -225 -8 -510 -15 -633 -15 -178 0 -238 -4 -295 -17 -91 -23 -409 -25
-502 -5 -250 56 -417 121 -838 325 l-208 101 2 555 c1 524 0 564 -20 701 -44
293 -103 514 -281 1050 -204 616 -263 823 -305 1065 -9 55 -32 146 -51 202
-77 229 -46 463 79 593 54 57 107 80 184 80 132 0 260 -78 347 -213 230 -353
488 -1002 671 -1687 20 -74 79 -263 130 -420 163 -495 207 -671 224 -905 9
-126 8 -157 -19 -355 -21 -153 18 -347 95 -479 147 -251 403 -318 660 -174 25
14 49 32 54 41 30 58 92 410 170 977 74 532 94 886 121 2110 18 834 30 1134
47 1215 42 202 169 368 324 424 66 24 180 17 244 -16z m-1165 -2 c0 -25 -165
-783 -178 -816 -22 -57 -21 -196 2 -330 32 -189 17 -300 -52 -387 -16 -21 -41
-61 -55 -89 -30 -59 -81 -117 -99 -112 -7 2 -22 22 -33 44 -16 34 -19 62 -21
209 l-1 170 -48 140 c-62 182 -134 350 -290 675 -109 227 -225 482 -225 496 0
2 225 4 500 4 275 0 500 -2 500 -4z m5510 -88 c63 -19 186 -57 272 -84 l158
-49 39 -80 c85 -176 131 -385 161 -740 19 -223 39 -389 69 -568 69 -407 84
-563 71 -722 -12 -153 -38 -248 -92 -345 -79 -141 -214 -251 -393 -320 -78
-30 -77 -29 -114 -104 -36 -73 -42 -146 -15 -185 74 -105 374 -42 528 112 l59
59 -6 -619 c-3 -340 -11 -908 -17 -1263 -11 -632 -11 -648 10 -810 28 -222 84
-546 174 -1015 117 -607 118 -618 106 -738 -12 -120 -30 -229 -70 -416 -36
-173 -57 -312 -66 -427 -5 -75 -4 -96 11 -124 76 -147 97 -345 55 -518 -40
-166 -135 -335 -380 -677 -59 -82 -120 -175 -135 -205 -15 -30 -63 -163 -107
-295 -115 -348 -183 -476 -279 -525 -77 -40 -174 -15 -286 72 -52 40 -53 40
-115 33 -134 -15 -193 -32 -551 -164 -237 -87 -422 -123 -544 -104 -48 7 -107
5 -261 -13 -200 -22 -451 -44 -509 -44 l-30 0 -5 468 c-6 530 -6 533 72 650
47 70 88 108 183 170 143 92 466 417 680 683 188 235 359 524 451 761 l44 115
-14 109 c-77 576 -162 1144 -274 1830 -28 170 -87 534 -131 808 -91 575 -93
486 11 746 76 189 134 317 322 705 337 696 344 718 448 1440 16 116 38 262 49
325 10 63 26 169 35 235 10 66 41 242 71 390 101 503 122 670 111 880 -9 177
-17 213 -81 340 -38 73 -58 127 -62 162 -5 46 -3 54 22 78 26 27 29 28 118 22
63 -3 128 -16 207 -39z m-8581 17 c42 -21 54 -62 48 -158 -3 -56 -17 -122 -43
-207 -46 -149 -48 -200 -14 -465 74 -587 177 -1052 485 -2195 237 -880 375
-1449 361 -1486 -3 -8 -19 -14 -37 -14 -50 0 -188 -39 -266 -75 -266 -123
-470 -357 -746 -853 l-46 -82 49 -388 c128 -1001 171 -1492 174 -1996 l1 -244
48 -93 c26 -52 85 -141 130 -199 77 -98 84 -111 105 -194 24 -95 78 -218 137
-317 56 -92 148 -203 343 -417 99 -108 197 -218 218 -243 22 -25 98 -109 169
-186 155 -166 196 -233 203 -332 3 -51 -1 -79 -18 -126 -12 -33 -26 -96 -31
-140 -15 -140 -45 -190 -128 -220 -57 -20 -110 -19 -314 5 -184 21 -217 20
-356 -17 -134 -36 -309 -30 -496 15 -71 17 -167 38 -212 47 -161 31 -297 102
-537 281 -172 128 -200 161 -288 339 -105 212 -167 430 -247 875 -104 578
-114 671 -114 1025 0 387 26 637 151 1430 l77 490 -2 265 c-3 387 -23 716 -83
1398 -87 973 -93 1103 -65 1437 20 234 36 373 91 765 25 179 54 388 64 466 20
145 48 418 75 724 32 359 74 560 149 714 116 236 268 329 536 328 114 -1 135
2 211 28 94 32 175 38 218 15z m6723 -32 c-134 -162 -279 -410 -516 -883 -240
-478 -320 -619 -466 -815 -56 -76 -81 -100 -137 -134 l-68 -41 -3 801 c-2 767
-1 803 17 844 52 117 173 192 362 225 35 6 217 15 404 20 187 5 356 13 375 19
71 19 75 15 32 -36z m-5532 -5363 c32 0 201 -135 825 -660 220 -185 481 -402
580 -484 99 -81 191 -162 204 -179 105 -142 153 -384 117 -587 -57 -319 -258
-483 -574 -467 -214 10 -357 91 -677 382 -82 75 -215 188 -295 252 -510 406
-791 859 -790 1273 1 175 31 255 129 342 52 45 135 90 201 108 56 15 185 29
224 24 16 -2 41 -4 56 -4z m4011 -241 c108 -43 331 -138 495 -210 164 -72 429
-187 587 -255 158 -68 312 -139 341 -159 144 -96 261 -273 324 -492 39 -134
47 -203 47 -408 0 -214 -10 -284 -62 -442 -28 -88 -251 -524 -333 -653 -243
-383 -516 -658 -871 -878 -121 -74 -169 -118 -212 -193 -53 -93 -60 -133 -66
-436 -4 -155 -9 -285 -13 -288 -7 -8 -482 -33 -1488 -79 -910 -42 -907 -42
-1045 -62 -349 -52 -566 74 -592 342 l-6 62 -180 213 c-609 723 -857 1092
-1078 1604 -134 311 -141 335 -96 335 13 0 44 -14 68 -32 64 -46 232 -219 277
-286 178 -262 411 -409 737 -468 134 -24 422 -24 595 0 69 9 163 21 210 27
176 19 290 75 415 203 71 73 161 200 208 292 97 192 178 457 202 666 7 55 6
59 -33 118 -22 33 -46 76 -52 96 -32 96 84 97 270 4 150 -75 270 -182 322
-285 17 -33 49 -80 72 -105 23 -25 110 -133 194 -242 193 -248 294 -362 390
-440 222 -178 406 -175 588 9 l74 75 0 91 c-1 288 -142 580 -410 847 -164 165
-384 315 -592 407 -53 23 -179 68 -280 99 -402 125 -654 250 -804 399 -88 87
-118 150 -119 245 0 62 5 84 28 131 35 69 95 139 166 195 l56 44 735 -6 735
-7 196 -78z"/>
<path d="M10130 7184 c-48 -21 -87 -60 -118 -119 -22 -42 -26 -63 -26 -130 0
-67 4 -90 27 -140 15 -32 39 -74 53 -92 53 -70 126 -272 235 -653 147 -511
250 -774 376 -955 41 -60 53 -71 83 -75 70 -11 76 -5 107 89 25 76 28 100 28
211 -1 215 -42 359 -245 841 -159 380 -202 504 -236 691 -31 167 -54 236 -97
285 -53 61 -118 77 -187 47z"/>
<path d="M10825 4171 c-133 -76 -260 -237 -316 -400 -11 -30 -19 -66 -19 -81
0 -43 -46 -176 -99 -285 -27 -55 -113 -206 -191 -335 -162 -266 -248 -435
-288 -559 -23 -73 -27 -103 -26 -201 0 -96 4 -125 23 -173 28 -70 44 -87 82
-87 71 0 91 20 176 166 115 199 264 485 407 782 68 141 176 367 241 502 65
135 140 286 166 336 46 85 49 95 49 165 0 90 -14 144 -45 175 -34 34 -95 32
-160 -5z"/>
<path d="M1214 9892 c-57 -46 -90 -161 -105 -361 -9 -138 0 -385 19 -494 4
-22 3 -84 -2 -139 -23 -241 46 -507 194 -754 99 -165 204 -299 434 -553 l121
-133 58 6 c169 17 212 112 129 280 -42 83 -243 357 -330 450 -116 123 -174
243 -223 464 -6 26 -15 260 -20 532 -4 267 -11 502 -15 523 -5 29 -23 56 -68
104 -83 90 -145 114 -192 75z"/>
<path d="M1261 3801 c-42 -27 -66 -430 -37 -631 55 -375 192 -669 421 -897 95
-96 105 -103 142 -103 116 0 183 68 183 188 0 69 -35 150 -82 184 -189 143
-235 257 -278 683 -40 404 -73 505 -183 560 -52 26 -137 34 -166 16z"/>
</g>
</svg>
