<svg width="170" height="171" viewBox="0 0 170 171" fill="none" xmlns="http://www.w3.org/2000/svg">
<g filter="url(#filter0_d_1014_1830)">
<rect x="7.70459" y="0.964844" width="154.357" height="154.357" rx="15.3779" fill="#D4E5ED"/>
<rect x="17.0024" y="10.2646" width="137.619" height="137.619" rx="15.3779" fill="#FF730E"/>
<path d="M82.7102 117.682C74.2993 117.682 67.277 116.056 61.6433 112.802C56.0889 109.47 52.2405 104.629 50.0981 98.2816L68.9037 90.1881C69.3004 93.0446 70.0145 95.3457 71.0461 97.0913C72.1569 98.7577 73.6249 99.9875 75.4499 100.781C77.2749 101.495 79.4173 101.852 81.8771 101.852C84.0988 101.852 85.9635 101.495 87.4711 100.781C89.0581 99.9875 90.288 98.8767 91.1608 97.4484C92.0336 96.0201 92.4701 94.3142 92.4701 92.3305C92.4701 90.2674 92.0336 88.6011 91.1608 87.3315C90.3673 86.062 89.1771 85.1494 87.5901 84.594C86.0825 84.0386 84.2178 83.7609 81.9961 83.7609C80.9646 83.7609 80.0124 83.8005 79.1396 83.8799C78.2667 83.8799 77.2749 83.9592 76.164 84.1179V70.7874C76.7988 70.8668 77.4336 70.9461 78.0684 71.0255C78.7032 71.0255 79.457 71.0255 80.3298 71.0255C84.0592 71.0255 86.7173 70.2717 88.3043 68.764C89.9706 67.1771 90.8037 64.7173 90.8037 61.3847C90.8037 58.5281 89.9706 56.3461 88.3043 54.8385C86.7173 53.3308 84.4559 52.577 81.52 52.577C78.4254 52.577 75.8863 53.4102 73.9026 55.0765C71.9189 56.6635 70.6493 59.401 70.0939 63.289L52.1215 57.0999C52.9944 52.7357 54.859 49.046 57.7156 46.0308C60.5721 43.0156 64.1428 40.7145 68.4276 39.1275C72.7917 37.5406 77.5923 36.7471 82.8293 36.7471C88.8597 36.7471 93.938 37.6199 98.0641 39.3656C102.19 41.1112 105.324 43.6107 107.467 46.864C109.609 50.1172 110.68 53.9259 110.68 58.2901C110.68 61.7021 110.125 64.5586 109.014 66.8597C107.983 69.1608 106.634 71.0255 104.967 72.4537C103.38 73.882 101.754 74.9532 100.087 75.6673C98.4212 76.3021 97.0326 76.6989 95.9217 76.8576V77.2146C97.35 77.2146 98.9766 77.4923 100.802 78.0478C102.627 78.6032 104.412 79.5157 106.158 80.7853C107.903 81.9755 109.332 83.6418 110.442 85.7842C111.633 87.9266 112.228 90.5848 112.228 93.7587C112.228 98.6783 110.919 102.923 108.3 106.494C105.761 110.065 102.27 112.842 97.8261 114.826C93.3826 116.73 88.344 117.682 82.7102 117.682Z" fill="white"/>
</g>
<defs>
<filter id="filter0_d_1014_1830" x="0.265701" y="0.964844" width="169.235" height="169.235" filterUnits="userSpaceOnUse" color-interpolation-filters="sRGB">
<feFlood flood-opacity="0" result="BackgroundImageFix"/>
<feColorMatrix in="SourceAlpha" type="matrix" values="0 0 0 0 0 0 0 0 0 0 0 0 0 0 0 0 0 0 127 0" result="hardAlpha"/>
<feOffset dy="7.43889"/>
<feGaussianBlur stdDeviation="3.71944"/>
<feComposite in2="hardAlpha" operator="out"/>
<feColorMatrix type="matrix" values="0 0 0 0 0 0 0 0 0 0 0 0 0 0 0 0 0 0 0.25 0"/>
<feBlend mode="normal" in2="BackgroundImageFix" result="effect1_dropShadow_1014_1830"/>
<feBlend mode="normal" in="SourceGraphic" in2="effect1_dropShadow_1014_1830" result="shape"/>
</filter>
</defs>
</svg>
