<svg width="170" height="170" viewBox="0 0 170 170" fill="none" xmlns="http://www.w3.org/2000/svg">
<g filter="url(#filter0_d_1014_1678)">
<rect x="7.64307" y="0.393555" width="154.357" height="154.357" rx="15.3779" fill="#D4E5ED"/>
<rect x="16.9419" y="9.69141" width="137.619" height="137.619" rx="15.3779" fill="#1A4F7C"/>
<path d="M49.4868 126.854V31.4916H70.0038L71.2106 55.8023L68.5287 52.9817C69.1545 48.5046 70.5401 44.5647 72.6857 41.1621C74.8313 37.7595 77.6026 35.0733 80.9998 33.1033C84.3969 31.1334 88.2857 30.1484 92.6663 30.1484C98.209 30.1484 103.036 31.5363 107.149 34.3122C111.261 36.9984 114.435 40.9383 116.67 46.1317C118.994 51.2356 120.156 57.4588 120.156 64.8013C120.156 72.1437 118.994 78.4565 116.67 83.7394C114.345 89.0224 111.082 93.0518 106.881 95.8276C102.768 98.6034 97.9408 99.9913 92.3981 99.9913C86.319 99.9913 81.4021 98.2005 77.6473 94.6188C73.8926 90.9476 71.3894 86.3362 70.1379 80.7845L72.2834 77.561V126.854H49.4868ZM84.6204 83.2022C88.5539 83.2022 91.6382 81.7695 93.8731 78.9042C96.1081 75.9493 97.2256 71.3378 97.2256 65.0699C97.2256 58.8019 96.1081 54.2353 93.8731 51.3699C91.7276 48.415 88.688 46.9376 84.7545 46.9376C82.2513 46.9376 80.0611 47.6539 78.1837 49.0866C76.3063 50.4297 74.8313 52.4444 73.7585 55.1307C72.7751 57.817 72.2834 61.13 72.2834 65.0699C72.2834 68.8307 72.7304 72.099 73.6244 74.8748C74.6078 77.561 76.0381 79.6205 77.9155 81.0532C79.7929 82.4858 82.0278 83.2022 84.6204 83.2022Z" fill="white"/>
</g>
<defs>
<filter id="filter0_d_1014_1678" x="0.204177" y="0.393555" width="169.235" height="169.235" filterUnits="userSpaceOnUse" color-interpolation-filters="sRGB">
<feFlood flood-opacity="0" result="BackgroundImageFix"/>
<feColorMatrix in="SourceAlpha" type="matrix" values="0 0 0 0 0 0 0 0 0 0 0 0 0 0 0 0 0 0 127 0" result="hardAlpha"/>
<feOffset dy="7.43889"/>
<feGaussianBlur stdDeviation="3.71944"/>
<feComposite in2="hardAlpha" operator="out"/>
<feColorMatrix type="matrix" values="0 0 0 0 0 0 0 0 0 0 0 0 0 0 0 0 0 0 0.25 0"/>
<feBlend mode="normal" in2="BackgroundImageFix" result="effect1_dropShadow_1014_1678"/>
<feBlend mode="normal" in="SourceGraphic" in2="effect1_dropShadow_1014_1678" result="shape"/>
</filter>
</defs>
</svg>
