<svg width="170" height="170" viewBox="0 0 170 170" fill="none" xmlns="http://www.w3.org/2000/svg">
<g filter="url(#filter0_d_1014_1612)">
<rect x="7.46924" width="154.357" height="154.357" rx="15.3779" fill="#D4E5ED"/>
<rect x="16.7681" y="9.29785" width="137.619" height="137.619" rx="15.3779" fill="#1A4F7C"/>
<path d="M86.0787 42.7734C92.9824 42.7734 98.7052 43.7701 103.247 45.7633C107.88 47.6659 111.468 50.2481 114.011 53.5098C116.646 56.6808 118.281 60.1237 118.917 63.8384L97.5243 70.9053C96.8884 67.0094 95.7075 64.1102 93.9816 62.2075C92.3465 60.2143 89.9393 59.2177 86.76 59.2177C83.8532 59.2177 81.4006 59.8972 79.4021 61.2562C77.4945 62.5246 76.0411 64.6085 75.0419 67.5077C74.0427 70.3164 73.5431 73.9405 73.5431 78.38C73.5431 82.8195 74.0881 86.4435 75.1782 89.2522C76.2682 91.9702 77.8125 93.9635 79.8109 95.2319C81.8093 96.4097 84.1711 96.9986 86.8963 96.9986C89.1672 96.9986 91.0294 96.5909 92.4828 95.7755C94.027 94.8695 95.2988 93.6011 96.298 91.9702C97.2972 90.3394 97.9331 88.3462 98.2056 85.9905L119.053 92.6498C118.417 96.6362 116.691 100.215 113.875 103.386C111.15 106.467 107.516 108.913 102.975 110.725C98.4327 112.537 93.1187 113.443 87.0325 113.443C79.5838 113.443 73.0889 112.084 67.5478 109.366C62.0067 106.557 57.7373 102.525 54.7396 97.2705C51.742 91.9249 50.2432 85.5375 50.2432 78.1082C50.2432 70.6788 51.742 64.3367 54.7396 59.0818C57.7373 53.7363 61.9158 49.7045 67.2753 46.9864C72.7256 44.1778 78.9934 42.7734 86.0787 42.7734Z" fill="white"/>
</g>
<defs>
<filter id="filter0_d_1014_1612" x="0.0303493" y="0" width="169.235" height="169.235" filterUnits="userSpaceOnUse" color-interpolation-filters="sRGB">
<feFlood flood-opacity="0" result="BackgroundImageFix"/>
<feColorMatrix in="SourceAlpha" type="matrix" values="0 0 0 0 0 0 0 0 0 0 0 0 0 0 0 0 0 0 127 0" result="hardAlpha"/>
<feOffset dy="7.43889"/>
<feGaussianBlur stdDeviation="3.71944"/>
<feComposite in2="hardAlpha" operator="out"/>
<feColorMatrix type="matrix" values="0 0 0 0 0 0 0 0 0 0 0 0 0 0 0 0 0 0 0.25 0"/>
<feBlend mode="normal" in2="BackgroundImageFix" result="effect1_dropShadow_1014_1612"/>
<feBlend mode="normal" in="SourceGraphic" in2="effect1_dropShadow_1014_1612" result="shape"/>
</filter>
</defs>
</svg>
