<svg width="170" height="171" viewBox="0 0 170 171" fill="none" xmlns="http://www.w3.org/2000/svg">
<g filter="url(#filter0_d_1014_1690)">
<rect x="7.46924" y="0.786133" width="154.357" height="154.357" rx="15.3779" fill="#D4E5ED"/>
<rect x="16.7681" y="10.085" width="137.619" height="137.619" rx="15.3779" fill="#1A4F7C"/>
<path d="M85.371 114.229C78.7982 114.229 72.6635 113.142 66.9671 110.967C61.3583 108.702 56.7135 105.486 53.0327 101.318L63.5492 88.5434C65.7402 91.4427 68.6322 93.8889 72.2254 95.8821C75.9061 97.7848 79.9813 98.7361 84.4508 98.7361C87.1676 98.7361 89.4023 98.3284 91.1551 97.513C92.9078 96.6976 93.7842 95.4291 93.7842 93.7077C93.7842 92.4393 93.346 91.4427 92.4697 90.7178C91.5933 89.9024 89.8405 89.2229 87.2114 88.6793L78.0094 86.7767C69.7715 85.0552 63.8998 82.5184 60.3943 79.1661C56.9764 75.7232 55.2675 71.2384 55.2675 65.7117C55.2675 61.9971 56.3629 58.4636 58.5539 55.1113C60.7448 51.6684 64.1189 48.9051 68.676 46.8212C73.2332 44.6468 79.0611 43.5596 86.1597 43.5596C92.8202 43.5596 98.6919 44.5562 103.775 46.5494C108.858 48.5427 112.889 51.4419 115.869 55.2472L105.221 67.7503C103.118 65.0322 100.401 62.9031 97.0706 61.3628C93.7404 59.8226 90.4102 59.0525 87.0799 59.0525C84.9766 59.0525 83.1801 59.279 81.6902 59.732C80.288 60.0944 79.2364 60.638 78.5353 61.3628C77.8342 62.0877 77.4836 62.9937 77.4836 64.0809C77.4836 65.2587 78.0094 66.3006 79.0611 67.2067C80.2004 68.0221 82.2599 68.7469 85.2395 69.3811L97.2021 71.8274C103.95 73.0958 108.814 75.4061 111.794 78.7584C114.773 82.1107 116.263 86.1424 116.263 90.8537C116.263 95.2932 115.124 99.2797 112.845 102.813C110.567 106.347 107.149 109.155 102.592 111.239C98.0346 113.232 92.2944 114.229 85.371 114.229Z" fill="white"/>
</g>
<defs>
<filter id="filter0_d_1014_1690" x="0.0303493" y="0.786133" width="169.235" height="169.235" filterUnits="userSpaceOnUse" color-interpolation-filters="sRGB">
<feFlood flood-opacity="0" result="BackgroundImageFix"/>
<feColorMatrix in="SourceAlpha" type="matrix" values="0 0 0 0 0 0 0 0 0 0 0 0 0 0 0 0 0 0 127 0" result="hardAlpha"/>
<feOffset dy="7.43889"/>
<feGaussianBlur stdDeviation="3.71944"/>
<feComposite in2="hardAlpha" operator="out"/>
<feColorMatrix type="matrix" values="0 0 0 0 0 0 0 0 0 0 0 0 0 0 0 0 0 0 0.25 0"/>
<feBlend mode="normal" in2="BackgroundImageFix" result="effect1_dropShadow_1014_1690"/>
<feBlend mode="normal" in="SourceGraphic" in2="effect1_dropShadow_1014_1690" result="shape"/>
</filter>
</defs>
</svg>
