<svg width="166" height="165" viewBox="0 0 166 165" fill="none" xmlns="http://www.w3.org/2000/svg">
<g filter="url(#filter0_d_1031_1573)">
<rect x="8" width="150" height="150" rx="14.9439" fill="#D4E5ED"/>
<rect x="17.0361" y="9.03613" width="133.735" height="133.735" rx="14.9439" fill="#1A4F7C"/>
<path d="M87.8858 67.0553C87.8858 63.9737 87.0172 61.5525 85.2802 59.7916C83.6299 57.9427 81.3717 57.0182 78.5056 57.0182C75.6394 57.0182 73.164 57.7666 71.0795 59.2634C69.0819 60.6721 67.6922 63.2254 66.9106 66.9232L48.1501 62.433C49.3661 56.0937 52.5797 51.0312 57.7909 47.2453C63.0021 43.4594 70.3413 41.5664 79.8084 41.5664C86.1487 41.5664 91.5336 42.5349 95.9632 44.4719C100.48 46.3208 103.91 49.1382 106.255 52.9241C108.687 56.622 109.903 61.2003 109.903 66.6591V90.8273C109.903 94.261 111.423 95.9779 114.463 95.9779C116.026 95.9779 117.286 95.8018 118.241 95.4496L116.938 108.26C114.333 109.493 111.163 110.109 107.428 110.109C104.041 110.109 101.044 109.581 98.4385 108.524C95.8329 107.38 93.7918 105.707 92.3153 103.506C90.8388 101.217 90.1006 98.3551 90.1006 94.9214V94.129L92.5759 93.2045C92.5759 96.9904 91.4468 100.16 89.1886 102.713C87.0172 105.267 84.1511 107.16 80.59 108.392C77.1159 109.625 73.468 110.241 69.6465 110.241C65.2169 110.241 61.3519 109.537 58.0515 108.128C54.751 106.719 52.1888 104.694 50.3649 102.053C48.6278 99.3236 47.7593 95.9779 47.7593 92.0159C47.7593 87.2615 49.1489 83.3435 51.9283 80.262C54.7944 77.0924 59.2674 74.8912 65.3472 73.6586L89.9703 68.508L89.84 80.394L77.333 83.0354C74.7274 83.5636 72.7732 84.356 71.4704 85.4126C70.2544 86.3811 69.6465 87.8778 69.6465 89.9028C69.6465 91.8398 70.3413 93.2925 71.731 94.261C73.1206 95.2295 74.7708 95.7138 76.6816 95.7138C78.1581 95.7138 79.5478 95.4937 80.8506 95.0534C82.2403 94.6132 83.4562 93.9529 84.4985 93.0724C85.5407 92.1039 86.3658 90.9153 86.9738 89.5066C87.5818 88.0979 87.8858 86.4251 87.8858 84.4881V67.0553Z" fill="white"/>
</g>
<defs>
<filter id="filter0_d_1031_1573" x="0.771085" y="0" width="164.458" height="164.458" filterUnits="userSpaceOnUse" color-interpolation-filters="sRGB">
<feFlood flood-opacity="0" result="BackgroundImageFix"/>
<feColorMatrix in="SourceAlpha" type="matrix" values="0 0 0 0 0 0 0 0 0 0 0 0 0 0 0 0 0 0 127 0" result="hardAlpha"/>
<feOffset dy="7.22892"/>
<feGaussianBlur stdDeviation="3.61446"/>
<feComposite in2="hardAlpha" operator="out"/>
<feColorMatrix type="matrix" values="0 0 0 0 0 0 0 0 0 0 0 0 0 0 0 0 0 0 0.25 0"/>
<feBlend mode="normal" in2="BackgroundImageFix" result="effect1_dropShadow_1031_1573"/>
<feBlend mode="normal" in="SourceGraphic" in2="effect1_dropShadow_1031_1573" result="shape"/>
</filter>
</defs>
</svg>
