<svg width="170" height="170" viewBox="0 0 170 170" fill="none" xmlns="http://www.w3.org/2000/svg">
<g filter="url(#filter0_d_1014_1650)">
<rect x="8" y="0.393555" width="154.357" height="154.357" rx="15.3779" fill="#D4E5ED"/>
<rect x="17.2988" y="9.69141" width="137.619" height="137.619" rx="15.3779" fill="#1A4F7C"/>
<path d="M86.1741 49.7486C81.5322 49.7486 78.1401 48.9005 75.9977 47.2045C73.9445 45.4191 72.918 42.6519 72.918 38.9026C72.918 35.0642 73.9445 32.2969 75.9977 30.6008C78.1401 28.8155 81.5322 27.9229 86.1741 27.9229C90.7267 27.9229 94.0742 28.8155 96.2166 30.6008C98.359 32.2969 99.4302 35.0642 99.4302 38.9026C99.4302 42.6519 98.359 45.4191 96.2166 47.2045C94.0742 48.9005 90.7267 49.7486 86.1741 49.7486ZM97.5556 57.5148V124.465H74.7926V57.5148H97.5556Z" fill="white"/>
</g>
<defs>
<filter id="filter0_d_1014_1650" x="0.561111" y="0.393555" width="169.235" height="169.235" filterUnits="userSpaceOnUse" color-interpolation-filters="sRGB">
<feFlood flood-opacity="0" result="BackgroundImageFix"/>
<feColorMatrix in="SourceAlpha" type="matrix" values="0 0 0 0 0 0 0 0 0 0 0 0 0 0 0 0 0 0 127 0" result="hardAlpha"/>
<feOffset dy="7.43889"/>
<feGaussianBlur stdDeviation="3.71944"/>
<feComposite in2="hardAlpha" operator="out"/>
<feColorMatrix type="matrix" values="0 0 0 0 0 0 0 0 0 0 0 0 0 0 0 0 0 0 0.25 0"/>
<feBlend mode="normal" in2="BackgroundImageFix" result="effect1_dropShadow_1014_1650"/>
<feBlend mode="normal" in="SourceGraphic" in2="effect1_dropShadow_1014_1650" result="shape"/>
</filter>
</defs>
</svg>
