<svg width="170" height="170" viewBox="0 0 170 170" fill="none" xmlns="http://www.w3.org/2000/svg">
<g filter="url(#filter0_d_1014_1714)">
<rect x="8" y="0.179688" width="154.357" height="154.357" rx="15.3779" fill="#D4E5ED"/>
<rect x="17.2988" y="9.47754" width="137.619" height="137.619" rx="15.3779" fill="#1A4F7C"/>
<path d="M119.583 35.5146L98.0932 94.0374C95.8891 100.202 93.4882 105.118 90.8904 108.785C88.2927 112.453 85.2227 115.106 81.6804 116.744C78.1381 118.383 73.8873 119.202 68.928 119.202C65.6218 119.202 62.5912 118.851 59.836 118.149C57.0809 117.446 54.68 116.471 52.6333 115.223L56.6479 101.762C58.0649 102.777 59.5605 103.479 61.1349 103.869C62.7093 104.337 64.7166 104.571 67.1568 104.571C69.4397 104.571 71.2896 104.181 72.7065 103.401C74.2021 102.621 75.3829 101.138 76.2488 98.9533L77.7838 95.3249L70.9353 79.4067L53.2237 35.5146H75.3042L84.3962 68.8726L87.23 81.2794L90.5362 68.4044L99.6282 35.5146H119.583Z" fill="white"/>
</g>
<defs>
<filter id="filter0_d_1014_1714" x="0.561111" y="0.179688" width="169.235" height="169.235" filterUnits="userSpaceOnUse" color-interpolation-filters="sRGB">
<feFlood flood-opacity="0" result="BackgroundImageFix"/>
<feColorMatrix in="SourceAlpha" type="matrix" values="0 0 0 0 0 0 0 0 0 0 0 0 0 0 0 0 0 0 127 0" result="hardAlpha"/>
<feOffset dy="7.43889"/>
<feGaussianBlur stdDeviation="3.71944"/>
<feComposite in2="hardAlpha" operator="out"/>
<feColorMatrix type="matrix" values="0 0 0 0 0 0 0 0 0 0 0 0 0 0 0 0 0 0 0.25 0"/>
<feBlend mode="normal" in2="BackgroundImageFix" result="effect1_dropShadow_1014_1714"/>
<feBlend mode="normal" in="SourceGraphic" in2="effect1_dropShadow_1014_1714" result="shape"/>
</filter>
</defs>
</svg>
