<?xml version="1.0" encoding="UTF-8"?>
<svg viewBox="0 0 642.5 515" xmlns="http://www.w3.org/2000/svg">
 <g transform="matrix(1.25,0,0,-1.25,0,515)">
  <g transform="scale(.24)">
   <path d="m908.16 1428.4c77.977 0 141.2 63.22 141.2 141.2 0 77.99-63.219 141.2-141.2 141.2s-141.2-63.21-141.2-141.2c0-77.98 63.219-141.2 141.2-141.2"/>
   <path d="m1048 1174.2v88.98c0 189.58-279.57 187.5-279.57 0v-362.96h0.551l-264.14-264.13c-24.914-24.911-27.949-25.996-76.875-25.996-0.043-0.04-161.49 0-161.49 0-162.5 0-259.94-146.03-259.94-269.84 0-123.8 97.442-280.31 274.35-280.31h287.67c67.898 0 150.2 25.953 218.1 89.855l842.24 839.69c17.97 15.973 27.95 20.963 58.91 20.963h207.97c100.1 0 241.77 113.45 241.77 276.99 0 161.87-142.71 269.79-250 270.15h-328.36c-67.89 0-155.21-27.76-207.29-79.84l-303.91-303.56h0.01"/>
   <path d="m1663.7 575.94h-294.98c-81.25 0-84.37-125 0-125h151.2l-287.55-287.55c-63.74-63.75 26.41-155.99 94.14-88.27l283.27 284.05v-149.65c-0.43-81.25 125.61-84.375 125.8 0v293.14c0 43.75-29.36 73.274-71.88 73.274"/>
   <path d="m1579.1 1417.9h295.44c71.88 0 120.24-80.36 120.24-128.29 0-47.92-34.31-137.37-122.17-137.37h-177.62c-75.21 0-108.54-10.54-151.84-53.84l-848.66-848.67c-34.316-34.394-77.875-48.008-133.79-48.008h-279.87c-71.887 0-135.24 60.821-135.24 140.7s60.414 124.63 122.91 124.63h192c55.914 0 92.714 15.976 124.66 47.925l862.99 862.98c35.51 35.5 70.59 39.94 130.94 39.94" fill="#fff"/>
  </g>
 </g>
</svg>
