<?xml version="1.0" encoding="UTF-8"?>
<svg viewBox="0 0 642.5 502.5" xmlns="http://www.w3.org/2000/svg">
 <g transform="matrix(1.25,0,0,-1.25,0,502.5)">
  <g transform="scale(.24)">
   <path d="m908.16 1386.8c77.977 0 141.2 63.23 141.2 141.2 0 77.99-63.219 141.21-141.2 141.21s-141.2-63.22-141.2-141.21c0-77.97 63.219-141.2 141.2-141.2"/>
   <path d="m1048 1132.6v88.97c0 189.58-279.57 187.5-279.57 0v-362.96h0.551l-264.14-264.13c-24.914-24.914-27.949-25.997-76.875-25.997-0.043-0.042-161.49 0-161.49 0-162.5 0-259.94-146.04-259.94-269.84 0-123.8 97.442-280.31 274.35-280.31h287.67c67.898 0 150.2 25.957 218.1 89.856l842.24 839.69c17.97 15.976 27.95 20.961 58.91 20.961h207.97c100.1 0 241.77 113.45 241.77 276.99 0 161.87-142.71 269.8-250 270.15h-328.36c-67.89 0-155.21-27.75-207.29-79.84l-303.91-303.55h0.01"/>
   <path d="m1278 5.3125h294.97c81.25 0 84.38 125 0 125h-151.19l287.55 287.55c63.74 63.75-26.42 155.99-94.14 88.27l-283.27-284.06v149.65c0.43 81.25-125.61 84.375-125.8 0v-293.14c0-43.75 29.35-73.273 71.88-73.273"/>
   <path d="m1579.1 1376.2h295.44c71.88 0 120.24-80.36 120.24-128.28 0-47.93-34.31-137.37-122.17-137.37h-177.62c-75.21 0-108.54-10.55-151.84-53.85l-848.66-848.66c-34.316-34.398-77.875-48.012-133.79-48.012h-279.87c-71.887 0-135.24 60.825-135.24 140.7s60.414 124.63 122.91 124.63h192c55.914 0 92.714 15.973 124.66 47.922l862.99 862.99c35.51 35.5 70.59 39.93 130.94 39.93" fill="#fff"/>
  </g>
 </g>
</svg>
